<svg version="1.1" xmlns="http://www.w3.org/2000/svg" xmlns:xlink="http://www.w3.org/1999/xlink" width="54.60546" height="54.60546" viewBox="0,0,54.60546,54.60546"><defs><radialGradient cx="240" cy="180" r="26.80273" gradientUnits="userSpaceOnUse" id="color-1"><stop offset="0" stop-color="#73ff00"/><stop offset="1" stop-color="#0abd00"/></radialGradient></defs><g transform="translate(-212.69727,-152.69727)"><g data-paper-data="{&quot;isPaintingLayer&quot;:true}" fill-rule="nonzero" stroke="#000000" stroke-width="1" stroke-linecap="butt" stroke-linejoin="miter" stroke-miterlimit="10" stroke-dasharray="" stroke-dashoffset="0" style="mix-blend-mode: normal"><path d="M213.19727,180c0,-14.80274 11.99999,-26.80273 26.80273,-26.80273c14.80274,0 26.80273,11.99999 26.80273,26.80273c0,14.80274 -11.99999,26.80273 -26.80273,26.80273c-14.80274,0 -26.80273,-11.99999 -26.80273,-26.80273z" fill="url(#color-1)"/><path d="M260.08874,170.92699c0,0.87186 -0.89167,2.05998 -2.57076,0.31498c-1.76694,-1.8363 -5.2345,-7.52072 -7.65632,-8.9961c-4.89207,-2.98025 -10.65283,-3.36643 -10.65283,-5.15577c0,-1.32903 4.20798,-1.39905 8.35945,-0.23012c3.53176,0.99444 3.54662,1.40975 4.20926,1.88636c4.48991,3.22944 8.31121,10.39131 8.31121,12.18065z" fill="#c5ff96"/></g></g></svg>