<svg version="1.1" xmlns="http://www.w3.org/2000/svg" xmlns:xlink="http://www.w3.org/1999/xlink" width="110.75" height="49.5" viewBox="0,0,110.75,49.5"><g transform="translate(-215.5,-155.25)"><g data-paper-data="{&quot;isPaintingLayer&quot;:true}" fill-rule="nonzero" stroke-linejoin="miter" stroke-miterlimit="10" stroke-dasharray="" stroke-dashoffset="0" style="mix-blend-mode: normal"><path d="M216.5,180c0,-12.97869 10.52131,-23.5 23.5,-23.5c12.97869,0 23.5,10.52131 23.5,23.5c0,12.97869 -10.52131,23.5 -23.5,23.5c-12.97869,0 -23.5,-10.52131 -23.5,-23.5z" fill="#633000" stroke="#000000" stroke-width="2" stroke-linecap="butt"/><path d="M239.5,203.25v-46.75h60.5v46.75z" fill="#633000" stroke="#000000" stroke-width="2" stroke-linecap="butt"/><path d="M278,180c0,-12.97869 10.52131,-23.5 23.5,-23.5c12.97869,0 23.5,10.52131 23.5,23.5c0,12.97869 -10.52131,23.5 -23.5,23.5c-12.97869,0 -23.5,-10.52131 -23.5,-23.5z" fill="#a7893a" stroke="#000000" stroke-width="2.5" stroke-linecap="butt"/><path d="M238,202.25v-44.75h2.75v44.75z" fill="#633000" stroke="none" stroke-width="0" stroke-linecap="butt"/><path d="M229.25,159.46914h59.5" fill="none" stroke="#000000" stroke-width="2.5" stroke-linecap="round"/><path d="M222.5,165.5h59" fill="none" stroke="#000000" stroke-width="2.5" stroke-linecap="round"/><path d="M217.5,174.75h61" fill="none" stroke="#000000" stroke-width="2.5" stroke-linecap="round"/><path d="M217.75,185.75h60.5" fill="none" stroke="#000000" stroke-width="2.5" stroke-linecap="round"/><path d="M222,194h59.5" fill="none" stroke="#000000" stroke-width="2.5" stroke-linecap="round"/><path d="M226.25,198.75h60.25" fill="none" stroke="#000000" stroke-width="2.5" stroke-linecap="round"/><path d="M289.5,201.75h-55.25h-2.5" fill="none" stroke="#000000" stroke-width="2.5" stroke-linecap="round"/><path d="M286.25,180.5c0,-9.38884 7.61116,-17 17,-17c9.38884,0 17,7.61116 17,17c0,9.38884 -7.61116,17 -17,17c-9.38884,0 -17,-7.61116 -17,-17z" fill="#8b7131" stroke="#000000" stroke-width="0.5" stroke-linecap="butt"/><path d="M293.5,180.625c0,-5.31574 4.30926,-9.625 9.625,-9.625c5.31574,0 9.625,4.30926 9.625,9.625c0,5.31574 -4.30926,9.625 -9.625,9.625c-5.31574,0 -9.625,-4.30926 -9.625,-9.625z" fill="#a18338" stroke="#000000" stroke-width="0.5" stroke-linecap="butt"/><path d="M281.5,171.5l3,1.75" fill="none" stroke="#000000" stroke-width="0.5" stroke-linecap="round"/><path d="M295.75,161.25l2.75,2.5" fill="none" stroke="#000000" stroke-width="0.5" stroke-linecap="round"/><path d="M306.25,169.25l-4.75,-0.5" fill="none" stroke="#000000" stroke-width="0.5" stroke-linecap="round"/><path d="M296.25,177.25l2.5,5.25" fill="none" stroke="#000000" stroke-width="0.5" stroke-linecap="round"/><path d="M315.25,184.5l-5.25,-0.75" fill="none" stroke="#000000" stroke-width="0.5" stroke-linecap="round"/><path d="M301.5,191.75l4.25,0.5" fill="none" stroke="#000000" stroke-width="0.5" stroke-linecap="round"/><path d="M312.5,168v6" fill="none" stroke="#000000" stroke-width="0.5" stroke-linecap="round"/><path d="M290,191.25v-8.75" fill="none" stroke="#000000" stroke-width="0.5" stroke-linecap="round"/><path d="M304.25,176.5l-0.25,6.5" fill="none" stroke="#000000" stroke-width="0.5" stroke-linecap="round"/><path d="M316.25,190.75l-4.5,-2.5" fill="none" stroke="#000000" stroke-width="0.5" stroke-linecap="round"/><path d="M315.25,175.25l2.25,3.5" fill="none" stroke="#000000" stroke-width="0.5" stroke-linecap="round"/></g></g></svg>